<svg width="55" height="55" viewBox="0 0 55 55" fill="none" xmlns="http://www.w3.org/2000/svg">
<path fill-rule="evenodd" clip-rule="evenodd" d="M51.5625 13.7345C51.5625 10.8952 49.2611 8.59375 46.4217 8.59375H8.57828C5.73891 8.59375 3.4375 10.8952 3.4375 13.7345C3.4375 19.3566 3.4375 30.4872 3.4375 36.1092C3.4375 38.9486 5.73891 41.25 8.57828 41.25H20.0527L26.4688 46.0625C27.0806 46.5214 27.9194 46.5214 28.5312 46.0625L34.9473 41.25H46.4217C49.2611 41.25 51.5625 38.9486 51.5625 36.1092V13.7345ZM18.2188 29.2187H36.7812C37.73 29.2187 38.5 28.4487 38.5 27.5C38.5 26.5512 37.73 25.7812 36.7812 25.7812H18.2188C17.27 25.7812 16.5 26.5512 16.5 27.5C16.5 28.4487 17.27 29.2187 18.2188 29.2187ZM12.0312 22.3437H42.9688C43.9175 22.3437 44.6875 21.5737 44.6875 20.625C44.6875 19.6762 43.9175 18.9062 42.9688 18.9062H12.0312C11.0825 18.9062 10.3125 19.6762 10.3125 20.625C10.3125 21.5737 11.0825 22.3437 12.0312 22.3437Z" fill="#E4E6FF" stroke="#E4E6FF" stroke-width="0.008" stroke-miterlimit="2" stroke-linejoin="round"/>
</svg>
