<svg width="55" height="55" viewBox="0 0 55 55" fill="none" xmlns="http://www.w3.org/2000/svg">
<path d="M29.1084 40.6752C27.7445 39.7003 25.9533 41.1178 25.3202 42.6454C24.7695 43.9774 25.4479 45.2014 26.8108 45.5946C27.572 45.8124 28.3853 45.7589 29.1115 45.4433C30.7863 44.6537 30.6164 42.7103 29.7343 41.3525C29.5698 41.0896 29.3575 40.8598 29.1084 40.6752Z" fill="#E4E6FF"/>
<path d="M40.7663 27.4948C40.3645 27.4963 39.9635 27.5297 39.567 27.5947C38.1372 27.7847 36.7454 28.1952 35.4412 28.8114C34.7855 29.145 34.174 29.5608 33.508 29.8758C32.8369 30.1929 31.999 30.1826 31.3824 30.582C30.9849 30.8274 30.6971 31.2162 30.5784 31.668C30.3787 32.5172 30.9366 33.1915 31.6387 33.5806C32.6609 34.1468 33.6944 34.6944 34.7001 35.2873C35.5493 35.7886 36.5005 36.5401 37.5505 36.3774C38.2916 36.2622 38.935 35.5961 39.4857 35.1298C40.1946 34.5131 40.8682 33.857 41.5033 33.1647C42.2754 32.3474 43.4396 31.4868 43.837 30.407C43.9417 30.0517 43.9437 29.674 43.8425 29.3176C43.7414 28.9612 43.5414 28.6408 43.2656 28.3935C42.9303 28.0842 42.5363 27.8453 42.107 27.6909C41.6777 27.5366 41.2218 27.4699 40.7663 27.4948V27.4948Z" fill="#E4E6FF"/>
<path d="M51.3988 26.9863C51.3967 26.9215 51.3957 26.8577 51.3937 26.7938C51.3906 26.6888 51.3865 26.5828 51.3823 26.4778C51.3741 26.3018 51.3659 26.1258 51.3535 25.9508C51.3515 25.9127 51.3494 25.8767 51.3473 25.8386C51.3391 25.715 51.3288 25.5905 51.3185 25.467L51.3123 25.3959C50.8197 19.8287 48.3922 14.6099 44.4518 10.6463C40.5113 6.68269 35.3068 4.22476 29.7425 3.69951C29.7209 3.69745 29.6993 3.69642 29.6777 3.69437C29.4759 3.67584 29.2721 3.6604 29.0683 3.64805C29.0107 3.6429 28.954 3.63981 28.8974 3.63673C28.7224 3.62746 28.5454 3.6182 28.3704 3.61202C28.3086 3.60996 28.2479 3.6079 28.1871 3.60585C27.9586 3.59967 27.7301 3.59452 27.5005 3.59452C27.3204 3.59452 27.1403 3.59761 26.9611 3.60172C26.8705 3.60378 26.7789 3.6079 26.6873 3.60996C26.6091 3.61303 26.5319 3.6151 26.4557 3.6182C26.3188 3.6254 26.1819 3.6326 26.046 3.63981C26.0316 3.64084 26.0192 3.64187 26.0048 3.64187C20.3007 3.99991 14.9135 6.38954 10.8196 10.3777C6.72564 14.3659 4.19587 19.6887 3.6887 25.3815C3.62489 26.0743 3.59503 26.7383 3.59503 27.5C3.59503 27.6863 3.59709 27.8726 3.60224 28.0579L3.60841 28.2576C3.61151 28.375 3.61562 28.4923 3.62077 28.6097C3.62591 28.6931 3.63004 28.7754 3.63415 28.8588C3.63929 28.9566 3.6465 29.0544 3.65268 29.1532C3.65885 29.2469 3.66503 29.3416 3.67327 29.4352C3.67944 29.5176 3.68665 29.601 3.69488 29.6833C3.70415 29.7883 3.71341 29.8933 3.72474 29.9983C3.73194 30.0724 3.74121 30.1465 3.74841 30.2217C3.75562 30.2989 3.76282 30.3751 3.77312 30.4512L3.79165 30.5768C4.00011 32.2175 4.37997 33.8319 4.92501 35.3934C4.92624 35.3993 4.92796 35.4052 4.93015 35.4108C4.97545 35.5406 5.02279 35.6713 5.07118 35.802C5.08764 35.8453 5.10412 35.8885 5.11956 35.9317C5.15971 36.0398 5.20089 36.1469 5.24309 36.2529C5.27294 36.3311 5.30383 36.4073 5.33574 36.4835C5.36662 36.5617 5.39751 36.6399 5.43044 36.7161C7.62365 41.9899 11.639 46.3001 16.7444 48.8608C16.7595 48.8695 16.7749 48.8774 16.7908 48.8845C16.9112 48.9453 17.0337 49.005 17.1562 49.0626C17.2365 49.1017 17.3178 49.1408 17.3981 49.1779C17.4372 49.1964 17.4763 49.2139 17.5144 49.2325C20.647 50.67 24.0539 51.4113 27.5005 51.4055H27.5139C27.7126 51.4055 27.9123 51.4024 28.1099 51.3973C28.1418 51.3962 28.1717 51.3942 28.2015 51.3942C28.3776 51.389 28.5526 51.3829 28.7255 51.3736C28.7337 51.3736 28.742 51.3726 28.7502 51.3726C34.6502 51.0635 40.2268 48.5805 44.4041 44.4025C48.5815 40.2246 51.0638 34.6477 51.372 28.7476C51.3731 28.7404 51.3731 28.7332 51.3741 28.726C51.3834 28.551 51.3895 28.375 51.3937 28.1979L51.3967 28.1104C51.4029 27.9087 51.405 27.7049 51.405 27.501V27.5C51.405 27.3291 51.4029 27.1572 51.3988 26.9863ZM27.5005 48.2504C27.413 48.2504 27.3266 48.2473 27.2401 48.2463C27.1361 48.2453 26.9055 48.0219 26.817 47.9612C26.6523 47.8479 26.489 47.7333 26.327 47.6173C26.0213 47.397 25.7207 47.1685 25.4284 46.9307C24.7071 46.3717 24.0745 45.7069 23.5521 44.9586C22.4449 43.281 22.6487 41.3386 23.6601 39.6685C24.3822 38.476 25.5087 37.5367 26.3626 36.433C27.3361 35.2358 28.074 33.865 28.5371 32.393C28.7423 31.737 28.7893 31.0417 28.6741 30.364C28.5589 29.6863 28.2848 29.0456 27.8744 28.4942C26.8791 27.2693 25.0501 26.6127 23.5755 26.2277C23.3902 26.1793 23.2018 26.1402 23.0124 26.1083C22.5936 26.0432 22.1716 26.0003 21.7483 25.9796C20.2205 25.8927 18.6882 25.9254 17.1655 26.0774C15.8293 26.2071 14.4252 26.6219 13.1601 25.9755C12.069 25.4196 11.0869 24.6702 9.8846 24.3573C8.95102 24.1446 7.9958 24.0417 7.03834 24.0505C7.50585 21.2812 8.53055 18.6356 10.0504 16.2739C11.5702 13.9121 13.5536 11.8834 15.8803 10.3106C18.2071 8.73776 20.8289 7.65352 23.5869 7.12353C26.345 6.59354 29.1819 6.62881 31.9259 7.22723C32.0195 8.8094 33.4566 9.77393 32.7164 11.4549C31.7179 13.7216 28.9046 14.3949 27.7538 16.5411C27.4883 17.0011 27.3589 17.527 27.3806 18.0577C27.4023 18.5883 27.5742 19.1019 27.8763 19.5387C28.2931 20.1924 28.6738 20.8683 29.0168 21.5635C29.5181 22.5332 30.0586 23.8004 31.0509 24.3717C33.9538 26.0455 34.1885 20.8337 36.1845 20.5043C37.2612 20.3262 37.8696 20.9356 38.377 21.7951C38.9823 22.8183 39.4672 23.7139 40.7457 23.964C41.5517 24.0793 42.37 24.0793 43.1761 23.964C43.5734 23.926 47.8135 23.2558 47.763 23.0283C48.4316 26.06 48.4114 29.2031 47.704 32.226C46.9966 35.2489 45.6201 38.0746 43.6757 40.4948C41.7313 42.9151 39.2688 44.8683 36.4694 46.2105C33.67 47.5528 30.6051 48.2498 27.5005 48.2504L27.5005 48.2504Z" fill="#E4E6FF"/>
</svg>
