<svg width="55" height="55" viewBox="0 0 55 55" fill="none" xmlns="http://www.w3.org/2000/svg">
<path d="M46.4612 22.6163L38.5745 11.353L42.3289 8.72411L50.2157 19.9875L46.4612 22.6163Z" fill="#E4E6FF"/>
<path d="M42.144 28.4366L38.2007 22.8051L19.4285 35.9496L23.3718 41.5811L19.6173 44.2101L9.10175 29.1924L12.8562 26.5634L16.7996 32.1952L35.5719 19.0507L31.6284 13.4189L35.3829 10.79L45.8984 25.8078L42.144 28.4366Z" fill="#E4E6FF"/>
<path d="M47.5867 16.2329L51.3412 13.604L48.7124 9.84952L44.9579 12.4784L47.5867 16.2329Z" fill="#E4E6FF"/>
<path d="M16.4257 43.6473L8.53904 32.384L4.78461 35.0128L12.6713 46.2761L16.4257 43.6473Z" fill="#E4E6FF"/>
<path d="M10.0424 42.5219L6.28794 45.1507L3.65906 41.3962L7.4135 38.7674L10.0424 42.5219Z" fill="#E4E6FF"/>
</svg>
