<svg width="55" height="55" viewBox="0 0 55 55" fill="none" xmlns="http://www.w3.org/2000/svg">
<g clip-path="url(#clip0_1263_51)">
<path d="M24.1747 3.28038C26.0084 1.85411 28.5303 1.76497 30.4501 3.01296L30.8256 3.28038L53.5317 20.9406C55.4864 22.461 54.5341 25.5225 52.1818 25.775L51.8672 25.7917H49.167V47.4583C49.167 50.314 46.9571 52.6534 44.1545 52.8601L43.7503 52.875H11.2502C8.39459 52.875 6.05513 50.6654 5.84835 47.8626L5.83349 47.4583V25.7917H3.13307C0.65936 25.7917 -0.473072 22.792 1.23026 21.1471L1.46863 20.9406L24.1747 3.28038ZM27.5003 7.55605L10.2356 20.984C10.8546 21.4855 11.2502 22.2518 11.2502 23.1104V47.4583H19.3752V33.9167C19.3752 29.4292 23.0129 25.7917 27.5003 25.7917C31.9875 25.7917 35.6253 29.4292 35.6253 33.9167V47.4583H43.7503V23.1104C43.7503 22.2517 44.1457 21.4855 44.7646 20.984L27.5003 7.55605ZM27.5003 31.2083C26.0045 31.2083 24.792 32.4209 24.792 33.9167V47.4583H30.2086V33.9167C30.2086 32.4209 28.9958 31.2083 27.5003 31.2083Z" fill="#E4E6FF"/>
</g>
<defs>
<clipPath id="clip0_1263_51">
<rect width="55" height="55" fill="white"/>
</clipPath>
</defs>
</svg>
