<svg width="55" height="55" viewBox="0 0 55 55" fill="none" xmlns="http://www.w3.org/2000/svg">
<path d="M53.0578 44.6875L35.8703 14.9188C35.7576 14.7215 35.6069 14.5485 35.427 14.4099C35.247 14.2712 35.0414 14.1696 34.8219 14.1109C34.6036 14.0523 34.3758 14.0373 34.1516 14.0667C33.9275 14.0962 33.7114 14.1697 33.5156 14.2828L23.1 20.2984C22.9031 20.4107 22.7303 20.5609 22.5916 20.7402C22.4529 20.9196 22.3511 21.1246 22.292 21.3434C22.2329 21.5623 22.2177 21.7907 22.2472 22.0155C22.2767 22.2402 22.3504 22.457 22.4641 22.6531L39.6516 52.4219C39.803 52.6842 40.0211 52.9018 40.2836 53.0527C40.5462 53.2036 40.844 53.2825 41.1469 53.2813C41.4468 53.2794 41.7411 53.1992 42.0004 53.0484C42.2597 52.8976 42.475 52.6816 42.625 52.4219L45.6156 47.2656H51.5625C51.8654 47.2668 52.1632 47.188 52.4258 47.0371C52.6884 46.8862 52.9064 46.6685 53.0578 46.4063C53.2087 46.145 53.2881 45.8486 53.2881 45.5469C53.2881 45.2452 53.2087 44.9488 53.0578 44.6875Z" fill="white" fill-opacity="0.75"/>
<path d="M31.9 20.2984L21.4844 14.2828C21.0862 14.063 20.6196 14.0016 20.1781 14.1109C19.9586 14.1696 19.753 14.2712 19.573 14.4099C19.3931 14.5485 19.2424 14.7215 19.1297 14.9188L1.94218 44.6875C1.79133 44.9488 1.71191 45.2452 1.71191 45.5469C1.71191 45.8486 1.79133 46.145 1.94218 46.4062C2.09361 46.6685 2.31166 46.8862 2.57425 47.0371C2.83683 47.188 3.13463 47.2668 3.4375 47.2656H9.38437L12.375 52.4219C12.525 52.6816 12.7403 52.8976 12.9996 53.0484C13.2589 53.1992 13.5532 53.2794 13.8531 53.2812C14.156 53.2825 14.4538 53.2036 14.7164 53.0527C14.979 52.9018 15.197 52.6842 15.3484 52.4219L32.5359 22.6531C32.6496 22.457 32.7233 22.2402 32.7528 22.0155C32.7824 21.7907 32.7671 21.5623 32.708 21.3434C32.6489 21.1246 32.5471 20.9196 32.4084 20.7402C32.2697 20.5609 32.0969 20.4107 31.9 20.2984Z" fill="white" fill-opacity="0.75"/>
<path d="M27.5 42.9688C38.8909 42.9688 48.125 33.7346 48.125 22.3438C48.125 10.9529 38.8909 1.71875 27.5 1.71875C16.1091 1.71875 6.875 10.9529 6.875 22.3438C6.875 33.7346 16.1091 42.9688 27.5 42.9688Z" fill="#E4E6FF"/>
<path d="M39.5313 17.7547C39.433 17.4516 39.2523 17.1817 39.0095 16.9753C38.7667 16.7689 38.4713 16.6341 38.1563 16.5859L31.9172 15.675L29.0469 9.98594C28.9062 9.69535 28.6864 9.45028 28.4128 9.2788C28.1392 9.10732 27.8229 9.01637 27.5 9.01637C27.1771 9.01637 26.8608 9.10732 26.5872 9.2788C26.3136 9.45028 26.0939 9.69535 25.9531 9.98594L23.1688 15.675L16.9297 16.5859C16.6114 16.6321 16.3124 16.7667 16.0668 16.9744C15.8212 17.182 15.6388 17.4544 15.5403 17.7606C15.4418 18.0668 15.4312 18.3945 15.5097 18.7064C15.5883 19.0183 15.7527 19.3019 15.9844 19.525L20.5047 23.9594L19.4391 30.2156C19.3777 30.5379 19.4099 30.8709 19.5317 31.1755C19.6535 31.48 19.8599 31.7434 20.1266 31.9344C20.3771 32.1039 20.668 32.2043 20.9698 32.2255C21.2716 32.2466 21.5736 32.1877 21.8453 32.0547L27.5 29.0813L33.0688 32.0203C33.317 32.1543 33.5945 32.2252 33.8766 32.2266C34.2348 32.2243 34.5833 32.1101 34.8735 31.9C35.1401 31.709 35.3465 31.4456 35.4684 31.1411C35.5902 30.8365 35.6223 30.5035 35.561 30.1812L34.4953 23.925L39.0156 19.4906C39.2546 19.2779 39.4295 19.0028 39.5206 18.6961C39.6117 18.3894 39.6154 18.0634 39.5313 17.7547Z" fill="#8E92FC" fill-opacity="0.75"/>
</svg>
