<svg width="55" height="55" viewBox="0 0 55 55" fill="none" xmlns="http://www.w3.org/2000/svg">
<g clip-path="url(#clip0_7_88)">
<path d="M40.1041 5.61459C34.2887 2.32042 27.4105 1.44734 20.9565 3.18413C14.5025 4.92092 8.99135 9.12802 5.61456 14.8958C2.32038 20.7112 1.44731 27.5895 3.1841 34.0435C4.92089 40.4975 9.12799 46.0086 14.8958 49.3854C20.7112 52.6796 27.5895 53.5527 34.0434 51.8159C40.4974 50.0791 46.0086 45.872 49.3854 40.1042C52.6796 34.2888 53.5526 27.4105 51.8158 20.9565C50.0791 14.5025 45.872 8.99138 40.1041 5.61459ZM43.6562 14.6667C42.8541 23.375 37.0104 32.6563 32.1979 35.6354C30.6492 33.4979 29.6284 31.0243 29.2187 28.4167C34.2604 24.8646 37.6979 17.1875 38.1562 9.85417C40.24 11.1473 42.0979 12.773 43.6562 14.6667ZM18.1041 27.5C20.7089 27.2207 23.3425 27.5745 25.7812 28.5313C26.3541 34.7188 31.3958 41.4792 37.4687 45.6042C35.3256 46.757 32.9999 47.5322 30.5937 47.8958C23.375 42.8542 18.3333 33.1146 18.1041 27.5ZM8.36456 19.9375C16.2708 16.2708 27.2708 16.7292 32.1979 19.3646C31.1102 21.7814 29.4601 23.9029 27.3854 25.5521C21.8854 22.9167 13.4062 23.8333 6.87498 27.0417C6.9726 24.6072 7.47605 22.2061 8.36456 19.9375ZM27.5 6.87501C30.0084 6.87589 32.4949 7.34211 34.8333 8.25001C34.8144 10.9432 34.3497 13.6148 33.4583 16.1563C28.0729 13.4063 18.7916 12.9479 10.8854 15.3542C12.7939 12.7349 15.2927 10.6022 18.1794 9.12902C21.066 7.65584 24.2592 6.88363 27.5 6.87501ZM7.10414 30.8229C9.47683 29.5153 12.023 28.5508 14.6666 27.9583C15.0104 34.0313 19.25 42.2813 25.3229 48.0104C22.4679 47.6583 19.7066 46.7638 17.1875 45.375C14.5422 43.8376 12.2675 41.737 10.5249 39.2221C8.78233 36.7072 7.61445 33.8397 7.10414 30.8229ZM45.375 37.8125C44.1181 39.9558 42.4883 41.8572 40.5625 43.4271C38.2275 42.1118 36.1348 40.4066 34.375 38.3854C39.4166 35.0625 44.4583 27.2708 46.4062 19.25C47.7084 22.2066 48.2937 25.4291 48.1145 28.6548C47.9353 31.8805 46.9967 35.0183 45.375 37.8125Z" fill="#E4E6FF"/>
</g>
<defs>
<clipPath id="clip0_7_88">
<rect width="55" height="55" fill="white"/>
</clipPath>
</defs>
</svg>
