<svg width="55" height="55" viewBox="0 0 55 55" fill="none" xmlns="http://www.w3.org/2000/svg">
<path d="M12.6042 42.3958V35.5208C12.5997 33.1648 13.1566 30.8416 14.2286 28.7436C15.3006 26.6456 16.8569 24.8332 18.7688 23.4564C17.4795 21.9461 16.6074 20.1251 16.2392 18.1738C15.871 16.2225 16.0193 14.2088 16.6696 12.3326C15.0013 11.4426 13.0567 11.2212 11.231 11.7135C9.40528 12.2057 7.83552 13.3747 6.84073 14.9827C5.84593 16.5907 5.50074 18.5172 5.87531 20.3707C6.24989 22.2241 7.31612 23.8653 8.85731 24.9608C6.90917 25.8052 5.25003 27.2001 4.08366 28.9743C2.91729 30.7485 2.29447 32.8247 2.29169 34.9479V40.1042C2.29351 41.6231 2.8977 43.0793 3.97173 44.1533C5.04576 45.2273 6.50194 45.8315 8.02085 45.8333H13.3891C12.874 44.7605 12.6058 43.5859 12.6042 42.3958Z" fill="#E4E6FF"/>
<path d="M46.1427 24.9608C47.6839 23.8653 48.7501 22.2241 49.1247 20.3707C49.4993 18.5172 49.1541 16.5907 48.1593 14.9827C47.1645 13.3747 45.5947 12.2057 43.7691 11.7135C41.9434 11.2212 39.9988 11.4426 38.3304 12.3326C38.9807 14.2088 39.1291 16.2225 38.7608 18.1738C38.3926 20.1251 37.5206 21.9461 36.2313 23.4564C38.1431 24.8332 39.6995 26.6456 40.7715 28.7436C41.8435 30.8416 42.4003 33.1648 42.3958 35.5208V42.3958C42.3943 43.5859 42.1261 44.7605 41.6109 45.8333H46.9792C48.4981 45.8315 49.9543 45.2273 51.0283 44.1533C52.1023 43.0793 52.7065 41.6231 52.7083 40.1042V34.9479C52.7056 32.8247 52.0827 30.7485 50.9164 28.9743C49.75 27.2001 48.0909 25.8052 46.1427 24.9608Z" fill="#E4E6FF"/>
<path d="M32.2632 23.8585C33.972 22.8193 35.294 21.2497 36.0277 19.3891C36.7613 17.5285 36.8663 15.4791 36.3267 13.5532C35.787 11.6274 34.6324 9.93093 33.0387 8.72248C31.4451 7.51402 29.5 6.85992 27.5 6.85992C25.5 6.85992 23.5549 7.51402 21.9612 8.72248C20.3676 9.93093 19.2129 11.6274 18.6733 13.5532C18.1337 15.4791 18.2387 17.5285 18.9723 19.3891C19.7059 21.2497 21.028 22.8193 22.7368 23.8585C20.4206 24.8058 18.4384 26.4203 17.0422 28.4969C15.6461 30.5736 14.8989 33.0185 14.8958 35.5208V42.3958C14.8976 43.9147 15.5018 45.3709 16.5759 46.445C17.6499 47.519 19.1061 48.1232 20.625 48.125H34.375C35.8939 48.1232 37.3501 47.519 38.4241 46.445C39.4981 45.3709 40.1023 43.9147 40.1041 42.3958V35.5208C40.101 33.0185 39.3539 30.5736 37.9577 28.4969C36.5615 26.4203 34.5794 24.8058 32.2632 23.8585Z" fill="#E4E6FF"/>
</svg>
