<svg width="56" height="56" viewBox="0 0 56 56" fill="none" xmlns="http://www.w3.org/2000/svg">
<path fill-rule="evenodd" clip-rule="evenodd" d="M28 3.5C24.287 3.5 20.726 4.975 18.1005 7.60051C15.475 10.226 14 13.787 14 17.5C14 21.213 15.475 24.774 18.1005 27.3995C20.726 30.025 24.287 31.5 28 31.5C31.713 31.5 35.274 30.025 37.8995 27.3995C40.525 24.774 42 21.213 42 17.5C42 13.787 40.525 10.226 37.8995 7.60051C35.274 4.975 31.713 3.5 28 3.5V3.5ZM19.25 17.5C19.25 15.1794 20.1719 12.9538 21.8128 11.3128C23.4538 9.67187 25.6794 8.75 28 8.75C30.3206 8.75 32.5462 9.67187 34.1872 11.3128C35.8281 12.9538 36.75 15.1794 36.75 17.5C36.75 19.8206 35.8281 22.0462 34.1872 23.6872C32.5462 25.3281 30.3206 26.25 28 26.25C25.6794 26.25 23.4538 25.3281 21.8128 23.6872C20.1719 22.0462 19.25 19.8206 19.25 17.5Z" fill="#8E92FC"/>
<path d="M18.375 35C14.894 35 11.5556 36.3828 9.09422 38.8442C6.63281 41.3056 5.25 44.644 5.25 48.125V49.875C5.25 50.5712 5.52656 51.2389 6.01884 51.7312C6.51113 52.2234 7.17881 52.5 7.875 52.5C8.57119 52.5 9.23887 52.2234 9.73116 51.7312C10.2234 51.2389 10.5 50.5712 10.5 49.875V48.125C10.5 46.0364 11.3297 44.0334 12.8065 42.5565C14.2834 41.0797 16.2864 40.25 18.375 40.25H37.625C39.7136 40.25 41.7166 41.0797 43.1935 42.5565C44.6703 44.0334 45.5 46.0364 45.5 48.125V49.875C45.5 50.5712 45.7766 51.2389 46.2688 51.7312C46.7611 52.2234 47.4288 52.5 48.125 52.5C48.8212 52.5 49.4889 52.2234 49.9812 51.7312C50.4734 51.2389 50.75 50.5712 50.75 49.875V48.125C50.75 44.644 49.3672 41.3056 46.9058 38.8442C44.4444 36.3828 41.106 35 37.625 35H18.375Z" fill="#8E92FC"/>
</svg>
