<svg id="SvgjsSvg1006" width="288" height="288" xmlns="http://www.w3.org/2000/svg" version="1.1" xmlns:xlink="http://www.w3.org/1999/xlink" xmlns:svgjs="http://svgjs.com/svgjs"><defs id="SvgjsDefs1007"></defs><g id="SvgjsG1008"><svg xmlns="http://www.w3.org/2000/svg" fill="none" viewBox="0 0 16 16" width="288" height="288"><g fill="#ffffff" class="color000 svgShape"><path fill-rule="evenodd" d="M8 1a4 4 0 100 8 4 4 0 000-8zM5.5 5a2.5 2.5 0 115 0 2.5 2.5 0 01-5 0z" clip-rule="evenodd"></path><path d="M5.25 10a3.75 3.75 0 00-3.75 3.75v.5a.75.75 0 001.5 0v-.5a2.25 2.25 0 012.25-2.25h5.5A2.25 2.25 0 0113 13.75v.5a.75.75 0 001.5 0v-.5A3.75 3.75 0 0010.75 10h-5.5z"></path></g></svg></g></svg>